<svg width="32" height="32" viewBox="0 0 32 32" fill="none" xmlns="http://www.w3.org/2000/svg">
<path fill-rule="evenodd" clip-rule="evenodd" d="M16.0013 29.3332C23.365 29.3332 29.3346 23.3636 29.3346 15.9998C29.3346 8.63604 23.365 2.6665 16.0013 2.6665C8.6375 2.6665 2.66797 8.63604 2.66797 15.9998C2.66797 18.1328 3.1688 20.1486 4.05925 21.9365C4.29589 22.4116 4.37465 22.9546 4.23746 23.4673L3.44332 26.4354C3.09857 27.7238 4.27732 28.9025 5.56577 28.5578L8.53382 27.7637C9.04654 27.6265 9.58958 27.7053 10.0647 27.9418C11.8525 28.8324 13.8684 29.3332 16.0013 29.3332ZM10.668 17.6665C10.1157 17.6665 9.66797 18.1142 9.66797 18.6665C9.66797 19.2188 10.1157 19.6665 10.668 19.6665H18.0013C18.5536 19.6665 19.0013 19.2188 19.0013 18.6665C19.0013 18.1142 18.5536 17.6665 18.0013 17.6665H10.668ZM9.66797 13.9998C9.66797 13.4476 10.1157 12.9998 10.668 12.9998H21.3346C21.8869 12.9998 22.3346 13.4476 22.3346 13.9998C22.3346 14.5521 21.8869 14.9998 21.3346 14.9998H10.668C10.1157 14.9998 9.66797 14.5521 9.66797 13.9998Z" fill="white"/>
</svg>
