<?xml version="1.0" encoding="UTF-8"?>
<svg version="1.1" xmlns="http://www.w3.org/2000/svg" width="256" height="256">
<path d="M0 0 C3.96 0 7.92 0 12 0 C12 26.4 12 52.8 12 80 C25.86 80 39.72 80 54 80 C49.50446841 86.74329738 49.50446841 86.74329738 47.15234375 89.59375 C46.63542969 90.22410156 46.11851562 90.85445313 45.5859375 91.50390625 C45.04195313 92.16261719 44.49796875 92.82132812 43.9375 93.5 C39.73697507 98.62558435 35.575234 103.77420039 31.5 109 C26.93585634 114.84704718 22.27215723 120.6081772 17.58325195 126.35546875 C13.65021309 131.18219039 9.77980622 136.05189004 6 141 C1.78151061 136.94740626 -1.92871082 132.59210096 -5.625 128.0625 C-6.24109131 127.31105713 -6.85718262 126.55961426 -7.49194336 125.78540039 C-11.68347732 120.65675029 -15.80707362 115.47909214 -19.87426758 110.25146484 C-22.33176041 107.09911964 -24.82288401 103.97990404 -27.359375 100.890625 C-27.93357178 100.19074463 -28.50776855 99.49086426 -29.09936523 98.76977539 C-30.19944236 97.43265727 -31.3028438 96.09826334 -32.41040039 94.76733398 C-36.33630201 89.99366072 -39.5256692 85.21149619 -43 80 C-28.81 80 -14.62 80 0 80 C0 53.6 0 27.2 0 0 Z " fill="#FFFFFF" transform="translate(123,40)"/>
<path d="M0 0 C45.21 0 90.42 0 137 0 C137 3.96 137 7.92 137 12 C91.79 12 46.58 12 0 12 C0 8.04 0 4.08 0 0 Z " fill="#FFFFFF" transform="translate(60,205)"/>
</svg>
