<svg width="24" height="24" viewBox="0 0 24 24" fill="none" xmlns="http://www.w3.org/2000/svg">
<g clip-path="url(#clip0_1576_9434)">
<path d="M8.30756 19.3846H15.6922V20.8538H8.30756V19.3846ZM13.1076 23.8153H10.8922C10.0765 23.8153 9.41525 23.1541 9.41525 22.3384V21.9692H14.5845V22.3384C14.5845 23.1541 13.9233 23.8153 13.1076 23.8153ZM11.8128 0.186774C7.57842 0.286466 4.17808 3.83219 4.24713 8.06717C4.27971 10.0693 5.07125 11.887 6.34648 13.245C7.5871 14.5663 8.30756 16.2915 8.30756 18.1041V18.2692H11.446C11.446 18.2692 11.5 12 11.446 11.8153C11.392 11.6307 10.5 12 9.9691 11.8153C9.43819 11.6307 9.5 11 9.9691 10.7076C10.4382 10.4153 13.5613 10.4153 14.0306 10.7076C14.5 11 14.5613 11.6307 14.0306 11.8153C13.5 12 12.6074 11.6307 12.5537 11.8153C12.5 12 12.5537 18.2692 12.5537 18.2692H15.6922V18.1037C15.6922 16.2944 16.4072 14.5691 17.6473 13.2515C18.9534 11.8637 19.7537 9.99456 19.7537 7.9384C19.7537 3.59394 16.1807 0.0839427 11.8128 0.186774Z" fill="white"/>
</g>
<defs>
<clipPath id="clip0_1576_9434">
<rect width="24" height="24" fill="white"/>
</clipPath>
</defs>
</svg>
