<svg width="32" height="32" viewBox="0 0 32 32" fill="none" xmlns="http://www.w3.org/2000/svg">
<g clip-path="url(#clip0_1316_577)">
<path d="M26.0002 32.0001C22.6866 32.0001 20.0004 29.3139 20.0004 26.0003C20.0004 22.6867 22.6866 20.0005 26.0002 20.0005C29.3138 20.0005 32 22.6867 32 26.0003C32 29.3139 29.3138 32.0001 26.0002 32.0001Z" fill="white"/>
<path d="M5.00406 28.0002C2.24273 28.0002 0.00421906 25.7617 0.00421906 23.0003C0.00421906 20.239 2.24273 18.0005 5.00406 18.0005C7.7654 18.0005 10.0039 20.239 10.0039 23.0003C10.0039 25.7617 7.7654 28.0002 5.00406 28.0002Z" fill="white"/>
<path d="M28.0001 9.00195H32V24.9995H28.0001V9.00195Z" fill="white"/>
<path d="M6.00403 7.00195H10.0039V22.9995H6.00403V7.00195Z" fill="white"/>
<path d="M10.0046 0L28.004 1.99994C29.0649 1.99994 30.0823 2.42135 30.8324 3.17147C31.5825 3.92159 32.0039 4.93898 32.0039 5.99981V9.99969C32.0039 11.0605 31.5825 12.0779 30.8324 12.828C30.0823 13.5781 29.0649 13.9996 28.004 13.9996L10.0046 11.9996C8.94376 11.9996 7.92638 11.5782 7.17625 10.8281C6.42613 10.078 6.00472 9.06058 6.00472 7.99975V3.99987C6.00472 2.93904 6.42613 1.92166 7.17625 1.17153C7.92638 0.421411 8.94376 0 10.0046 0ZM10.0046 7.99975L28.004 9.99969V5.99981L10.0046 3.99987V7.99975Z" fill="white"/>
</g>
<defs>
<clipPath id="clip0_1316_577">
<rect width="32" height="32" fill="white" transform="matrix(-1 0 0 1 32 0)"/>
</clipPath>
</defs>
</svg>
