<svg width="40" height="40" viewBox="0 0 40 40" fill="none" xmlns="http://www.w3.org/2000/svg">
<g filter="url(#filter0_i_945_3648)">
<rect width="40" height="40" rx="12" fill="#181818"/>
<rect x="0.2" y="0.2" width="39.6" height="39.6" rx="11.8" stroke="#B5B5B5" stroke-width="0.4"/>
<path fill-rule="evenodd" clip-rule="evenodd" d="M19.2709 10C17.8676 10 16.7299 11.1377 16.7299 12.541C16.7299 12.7444 16.5897 13.0158 16.2545 13.1978C16.1513 13.2538 16.0496 13.3121 15.9494 13.3725C15.615 13.5741 15.3012 13.5611 15.1169 13.4557C13.8931 12.7555 12.3336 13.1733 11.6239 14.3916L10.9195 15.6008C10.2084 16.8214 10.628 18.3877 11.8542 19.0892C12.0319 19.191 12.1991 19.4497 12.191 19.8346C12.1898 19.8896 12.1892 19.9448 12.1892 20C12.1892 20.0553 12.1898 20.1104 12.191 20.1654C12.1991 20.5504 12.032 20.8091 11.8542 20.9108C10.6281 21.6123 10.2084 23.1786 10.9195 24.3992L11.6239 25.6084C12.3337 26.8267 13.8932 27.2445 15.117 26.5443C15.3012 26.4389 15.6151 26.4259 15.9494 26.6275C16.0496 26.6879 16.1513 26.7462 16.2545 26.8022C16.5897 26.9842 16.7299 27.2556 16.7299 27.459C16.7299 28.8623 17.8676 30 19.2709 30H20.7296C22.133 30 23.2706 28.8623 23.2706 27.459C23.2706 27.2556 23.4109 26.9842 23.7461 26.8022C23.8492 26.7462 23.951 26.6879 24.0512 26.6275C24.3855 26.4259 24.6993 26.4389 24.8836 26.5443C26.1074 27.2445 27.6669 26.8267 28.3766 25.6084L29.0811 24.3992C29.7922 23.1786 29.3725 21.6123 28.1464 20.9108C27.9686 20.8091 27.8015 20.5504 27.8096 20.1654C27.8108 20.1104 27.8114 20.0552 27.8114 20C27.8114 19.9448 27.8108 19.8896 27.8096 19.8346C27.8015 19.4496 27.9686 19.1909 28.1464 19.0892C29.3726 18.3877 29.7922 16.8214 29.0811 15.6008L28.3767 14.3916C27.6669 13.1733 26.1074 12.7555 24.8836 13.4557C24.6994 13.5611 24.3855 13.5741 24.0512 13.3725C23.951 13.3121 23.8493 13.2538 23.7461 13.1978C23.4109 13.0158 23.2706 12.7444 23.2706 12.541C23.2706 11.1377 22.133 10 20.7296 10H19.2709ZM20.0002 17C18.3433 17 17.0002 18.3431 17.0002 20C17.0002 21.6569 18.3433 23 20.0002 23C21.6571 23 23.0002 21.6569 23.0002 20C23.0002 18.3431 21.6571 17 20.0002 17Z" fill="white"/>
<path d="M6.56181 7.03625C4.79527 9.1587 4.51437 11.8724 3.66539 11.1657C2.81641 10.4591 3.58921 7.86936 5.35575 5.74691C7.12228 3.62446 9.47738 2.83462 10.3264 3.54123C11.1753 4.24785 8.32834 4.9138 6.56181 7.03625Z" fill="white" fill-opacity="0.88"/>
<path d="M33.3872 31.7829C34.8668 30.0052 35.102 27.7324 35.8131 28.3243C36.5241 28.9161 35.8769 31.0851 34.3973 32.8628C32.9178 34.6404 30.9453 35.3019 30.2342 34.7101C29.5232 34.1183 31.9077 33.5605 33.3872 31.7829Z" fill="white" fill-opacity="0.88"/>
<ellipse cx="3.5" cy="13" rx="0.5" ry="1" fill="white" fill-opacity="0.88"/>
</g>
<defs>
<filter id="filter0_i_945_3648" x="0" y="0" width="40" height="40" filterUnits="userSpaceOnUse" color-interpolation-filters="sRGB">
<feFlood flood-opacity="0" result="BackgroundImageFix"/>
<feBlend mode="normal" in="SourceGraphic" in2="BackgroundImageFix" result="shape"/>
<feColorMatrix in="SourceAlpha" type="matrix" values="0 0 0 0 0 0 0 0 0 0 0 0 0 0 0 0 0 0 127 0" result="hardAlpha"/>
<feOffset/>
<feGaussianBlur stdDeviation="4"/>
<feComposite in2="hardAlpha" operator="arithmetic" k2="-1" k3="1"/>
<feColorMatrix type="matrix" values="0 0 0 0 1 0 0 0 0 1 0 0 0 0 1 0 0 0 0.48 0"/>
<feBlend mode="normal" in2="shape" result="effect1_innerShadow_945_3648"/>
</filter>
</defs>
</svg>
