<svg width="43" height="52" viewBox="0 0 43 52" fill="none" xmlns="http://www.w3.org/2000/svg">
<path d="M21 4.5C26 4.5 30.27 7.61 32 12C30.27 16.39 26 19.5 21 19.5C16 19.5 11.73 16.39 10 12C11.73 7.61 16 4.5 21 4.5ZM21 7C18.24 7 16 9.24 16 12C16 14.76 18.24 17 21 17C23.76 17 26 14.76 26 12C26 9.24 23.76 7 21 7ZM21 9C22.66 9 24 10.34 24 12C24 13.66 22.66 15 21 15C19.34 15 18 13.66 18 12C18 10.34 19.34 9 21 9Z" fill="white"/>
<path d="M0.884844 42.878C0.90351 41.6273 1.15551 40.5493 1.64084 39.644C2.12618 38.7387 2.70951 37.9873 3.39084 37.39C4.07218 36.7833 4.71618 36.3213 5.32284 36.004C5.92951 35.6867 6.36351 35.4953 6.62484 35.43C6.88618 35.374 7.07284 35.444 7.18484 35.64C7.29684 35.8267 7.12884 36.0553 6.68084 36.326C6.51284 36.4007 6.18151 36.5873 5.68684 36.886C5.19218 37.1753 4.65551 37.5953 4.07684 38.146C3.50751 38.6967 3.01751 39.392 2.60684 40.232C2.19618 41.0627 2.00018 42.052 2.01884 43.2C2.07484 44.32 2.43418 45.2487 3.09684 45.986C3.75951 46.714 4.56218 47.2367 5.50484 47.554C6.45684 47.8807 7.39484 47.9833 8.31884 47.862C8.31884 47.806 8.30484 47.7407 8.27684 47.666C8.24884 47.6007 8.26284 47.512 8.31884 47.4C8.39351 47.2973 8.49151 47.246 8.61284 47.246C8.79018 47.246 8.97218 47.3393 9.15884 47.526C9.35484 47.7127 9.45284 47.9647 9.45284 48.282C9.45284 48.6553 9.28484 48.8933 8.94884 48.996C8.62218 49.0987 8.17418 49.1407 7.60484 49.122C6.74618 49.1313 5.80351 48.9493 4.77684 48.576C3.75018 48.212 2.85418 47.5727 2.08884 46.658C1.33284 45.7527 0.93151 44.4927 0.884844 42.878ZM4.21345 45.048C3.63479 44.348 3.35012 43.5593 3.35945 42.682C3.36879 41.7953 3.64412 40.9927 4.18545 40.274C4.49345 39.8913 4.86212 39.5973 5.29145 39.392C5.73012 39.1867 6.18745 39.084 6.66345 39.084C7.36345 39.084 7.98879 39.3033 8.53945 39.742C9.09012 40.1713 9.45412 40.7407 9.63145 41.45C9.85545 41.142 10.1401 40.8527 10.4855 40.582C10.8308 40.302 11.1855 40.162 11.5495 40.162C11.8575 40.162 12.1515 40.2973 12.4315 40.568C12.6275 40.792 12.7628 41.072 12.8375 41.408C12.9121 41.744 12.9541 42.08 12.9635 42.416C12.9728 42.7427 12.9775 43.0087 12.9775 43.214C12.9775 44.054 12.9681 44.6607 12.9495 45.034C12.9308 45.4073 12.8888 45.622 12.8235 45.678C12.7395 45.734 12.6228 45.762 12.4735 45.762C12.3428 45.762 12.2168 45.7433 12.0955 45.706C11.9741 45.6593 11.8948 45.5987 11.8575 45.524C11.8108 45.3653 11.8061 44.9967 11.8435 44.418C11.8901 43.83 11.9088 43.242 11.8995 42.654C11.8901 42.0567 11.7968 41.6693 11.6195 41.492C11.4235 41.3893 11.2041 41.45 10.9615 41.674C10.7281 41.898 10.5135 42.1687 10.3175 42.486C10.1308 42.794 10.0188 43.0227 9.98145 43.172C9.93479 43.452 9.92545 43.7413 9.95345 44.04C9.98145 44.3387 9.93945 44.6233 9.82745 44.894C9.77145 44.9967 9.69212 45.0713 9.58945 45.118C9.48679 45.1647 9.37945 45.188 9.26745 45.188C9.07145 45.188 8.88945 45.1413 8.72145 45.048C8.55345 44.9453 8.44612 44.8147 8.39945 44.656C8.33412 44.2173 8.42745 43.8113 8.67945 43.438C8.81012 43.186 8.82879 42.8173 8.73545 42.332C8.65145 41.8467 8.54879 41.4733 8.42745 41.212C8.25012 40.8573 8.00745 40.596 7.69945 40.428C7.39145 40.26 7.06479 40.176 6.71945 40.176C6.05679 40.176 5.48279 40.4373 4.99745 40.96C4.67079 41.3707 4.48879 41.8793 4.45145 42.486C4.42345 43.0833 4.57745 43.606 4.91345 44.054C5.22145 44.39 5.50612 44.5907 5.76745 44.656C6.03812 44.7213 6.25279 44.8613 6.41145 45.076C6.52345 45.3 6.52345 45.538 6.41145 45.79C6.30879 46.042 6.12679 46.1587 5.86545 46.14C5.52945 46.0747 5.22612 45.944 4.95545 45.748C4.68479 45.5427 4.43745 45.3093 4.21345 45.048ZM13.9444 44.026C13.8604 43.7833 13.8184 43.5453 13.8184 43.312C13.8184 43.032 13.9071 42.8127 14.0844 42.654C14.2618 42.4953 14.4484 42.416 14.6444 42.416C14.8031 42.416 14.9431 42.4767 15.0644 42.598C15.1858 42.7567 15.2091 42.92 15.1344 43.088C15.0691 43.2467 15.0318 43.4007 15.0224 43.55C15.0784 43.9793 15.2744 44.2873 15.6104 44.474C15.9558 44.6607 16.3151 44.754 16.6884 44.754C16.9404 44.754 17.2158 44.7167 17.5144 44.642C17.8224 44.558 18.1024 44.4087 18.3544 44.194C18.6158 43.9793 18.8164 43.6713 18.9564 43.27C19.0124 43.13 19.0498 42.8593 19.0684 42.458C19.0871 42.0567 18.9844 41.646 18.7604 41.226C18.5458 40.806 18.1118 40.498 17.4584 40.302C16.6838 40.1807 16.1378 40.3207 15.8204 40.722C15.8018 40.778 15.7878 40.8573 15.7784 40.96C15.7784 41.0533 15.7318 41.128 15.6384 41.184C15.4891 41.2307 15.3211 41.1747 15.1344 41.016C14.9571 40.8573 14.8451 40.652 14.7984 40.4C14.7611 40.148 14.8778 39.9007 15.1484 39.658C15.2231 39.5927 15.3818 39.504 15.6244 39.392C15.8671 39.2707 16.1424 39.196 16.4504 39.168C17.2811 39.1307 17.9484 39.2427 18.4524 39.504C18.9564 39.7653 19.3298 40.0873 19.5724 40.47C19.8244 40.8433 19.9784 41.1793 20.0344 41.478C20.0811 41.702 20.1091 41.912 20.1184 42.108C20.1278 42.304 20.1324 42.486 20.1324 42.654C20.1791 42.7847 20.2911 42.9713 20.4684 43.214C20.6458 43.4567 20.8511 43.6853 21.0844 43.9C21.3271 44.1053 21.5558 44.208 21.7704 44.208C21.8824 44.208 21.9804 44.1707 22.0644 44.096C22.2324 43.9187 22.3211 43.564 22.3304 43.032C22.3398 42.4907 22.3258 41.9587 22.2884 41.436C22.2604 40.9133 22.2604 40.5867 22.2884 40.456C22.3258 40.372 22.4098 40.302 22.5404 40.246C22.6711 40.19 22.8064 40.162 22.9464 40.162C23.0584 40.162 23.1564 40.1853 23.2404 40.232C23.3338 40.2787 23.3804 40.3533 23.3804 40.456C23.3898 40.6427 23.3991 40.988 23.4084 41.492C23.4271 41.996 23.4271 42.5187 23.4084 43.06C23.3898 43.6013 23.3431 44.0167 23.2684 44.306C23.1844 44.614 23.0211 44.88 22.7784 45.104C22.5358 45.3187 22.2324 45.426 21.8684 45.426C21.6071 45.426 21.3131 45.3467 20.9864 45.188C20.3238 44.7773 19.9224 44.474 19.7824 44.278C19.7824 44.278 19.7078 44.404 19.5584 44.656C19.3531 44.9827 18.9891 45.2907 18.4664 45.58C17.9531 45.8693 17.2484 45.986 16.3524 45.93C15.8484 45.8273 15.5218 45.7247 15.3724 45.622C15.7738 47.4887 16.0491 48.758 16.1984 49.43C16.2264 49.6073 16.1751 49.7473 16.0444 49.85C15.9138 49.962 15.7691 50.018 15.6104 50.018C15.5171 50.018 15.4284 49.9947 15.3444 49.948C15.2698 49.9013 15.2184 49.8313 15.1904 49.738C14.7704 47.8993 14.3551 45.9953 13.9444 44.026ZM20.4417 47.82C20.3764 47.5493 20.4184 47.274 20.5677 46.994C20.7077 46.714 20.9411 46.518 21.2677 46.406C21.6317 46.3127 21.8324 46.3407 21.8697 46.49C21.8977 46.6487 21.8324 46.7887 21.6737 46.91C22.1031 46.9847 22.3457 47.1947 22.4017 47.54C22.4484 47.8853 22.3177 48.184 22.0097 48.436C21.8231 48.5573 21.6364 48.618 21.4497 48.618C21.2164 48.618 21.0064 48.5387 20.8197 48.38C20.6237 48.2307 20.4977 48.044 20.4417 47.82ZM21.3406 39.77C21.1539 39.5833 20.8973 39.2847 20.5706 38.874C20.2346 38.454 20.0899 38.048 20.1366 37.656C20.2486 37.3293 20.6033 37.0447 21.2006 36.802C21.7886 36.55 22.3999 36.354 23.0346 36.214C23.6693 36.074 24.1079 35.9993 24.3506 35.99C24.6586 35.9993 24.8266 36.1253 24.8546 36.368C24.8826 36.6107 24.7146 36.802 24.3506 36.942C23.6506 37.138 22.9926 37.334 22.3766 37.53C21.7606 37.726 21.4526 37.9033 21.4526 38.062C21.5366 38.258 21.7139 38.5053 21.9846 38.804C22.2553 39.1027 22.4093 39.35 22.4466 39.546C22.4186 39.9007 22.2553 40.078 21.9566 40.078C21.7793 40.078 21.5739 39.9753 21.3406 39.77ZM24.2638 43.816C24.2824 43.088 24.6044 42.5607 25.2298 42.234C25.1364 41.8233 25.1038 41.3193 25.1318 40.722C25.1691 40.274 25.2438 39.9613 25.3558 39.784C25.4678 39.5973 25.6031 39.504 25.7618 39.504C25.8458 39.504 25.9438 39.5273 26.0558 39.574C26.1958 39.6487 26.2704 39.77 26.2798 39.938C26.2891 40.106 26.2844 40.2647 26.2658 40.414C26.2191 40.9367 26.2238 41.4453 26.2798 41.94C26.6904 41.8467 27.0964 41.8 27.4978 41.8C27.7498 41.8 27.9691 41.828 28.1558 41.884C28.3518 41.94 28.4731 42.0287 28.5198 42.15C28.6504 42.5047 28.2678 42.724 27.3718 42.808C27.0918 42.8547 26.7884 42.92 26.4618 43.004C26.4618 43.0227 26.4711 43.0973 26.4898 43.228C26.5178 43.3493 26.5411 43.4707 26.5598 43.592C26.5411 43.6667 26.4618 43.704 26.3218 43.704C26.2004 43.704 26.0651 43.6713 25.9158 43.606C25.7664 43.5407 25.6358 43.4333 25.5238 43.284C25.3558 43.452 25.2764 43.6667 25.2858 43.928C25.3044 44.18 25.4071 44.39 25.5938 44.558C25.9671 44.8287 26.4618 44.964 27.0778 44.964C27.4324 44.964 27.7824 44.908 28.1278 44.796C28.4824 44.684 28.7904 44.4973 29.0518 44.236C29.4531 43.7973 29.6678 43.3073 29.6958 42.766C29.7331 42.2153 29.6444 41.7067 29.4298 41.24C29.2151 40.7733 28.9444 40.442 28.6178 40.246C28.3751 40.078 28.2818 39.8633 28.3378 39.602C28.3938 39.3407 28.5944 39.2193 28.9398 39.238C29.3224 39.3127 29.7238 39.6813 30.1438 40.344C30.5638 41.0067 30.7504 41.828 30.7038 42.808C30.6198 43.788 30.2744 44.5627 29.6678 45.132C29.0704 45.7013 28.1931 46 27.0358 46.028C26.3824 46.0467 25.7711 45.8927 25.2018 45.566C24.6324 45.23 24.3198 44.6467 24.2638 43.816ZM34.3085 45.986C33.4405 45.8647 32.8012 45.5567 32.3905 45.062C31.9892 44.558 31.7419 44.0073 31.6485 43.41C31.5552 42.8033 31.5412 42.2853 31.6065 41.856C31.7092 41.2213 31.9705 40.6567 32.3905 40.162C32.8199 39.658 33.3565 39.3407 34.0005 39.21C34.2339 39.1727 34.4019 39.2007 34.5045 39.294C34.6165 39.378 34.6772 39.4713 34.6865 39.574C34.7425 39.8913 34.6305 40.12 34.3505 40.26C34.0705 40.4 33.7579 40.5773 33.4125 40.792C33.0672 41.0067 32.8292 41.3893 32.6985 41.94C32.5492 42.8267 32.6659 43.5547 33.0485 44.124C33.4405 44.6933 34.1032 44.9547 35.0365 44.908C35.7272 44.824 36.2125 44.5533 36.4925 44.096C36.7725 43.6387 36.9219 43.172 36.9405 42.696C36.9592 42.2107 36.9265 41.9027 36.8425 41.772C36.7585 41.6507 36.6792 41.4407 36.6045 41.142C36.5299 40.834 36.5439 40.554 36.6465 40.302C36.7492 40.05 37.0292 39.9427 37.4865 39.98C37.7292 40.036 37.8925 40.274 37.9765 40.694C38.0605 41.1047 38.1025 41.5247 38.1025 41.954C38.1025 42.374 38.1025 42.584 38.1025 42.584C38.1492 42.724 38.2519 42.9153 38.4105 43.158C38.5785 43.3913 38.7699 43.6107 38.9845 43.816C39.1992 44.0213 39.4045 44.124 39.6005 44.124C39.6752 44.124 39.7452 44.1007 39.8105 44.054C39.9879 43.8953 40.0812 43.564 40.0905 43.06C40.0999 42.5467 40.0812 42.0287 40.0345 41.506C39.9879 40.9833 39.9785 40.624 40.0065 40.428C40.0345 40.316 40.1045 40.232 40.2165 40.176C40.3379 40.12 40.4592 40.092 40.5805 40.092C40.7205 40.092 40.8419 40.12 40.9445 40.176C41.0472 40.232 41.0985 40.3207 41.0985 40.442C41.0985 40.6753 41.0985 41.2307 41.0985 42.108C41.1079 42.976 41.0939 43.6993 41.0565 44.278C41.0285 44.5953 40.9025 44.866 40.6785 45.09C40.4545 45.314 40.1465 45.426 39.7545 45.426C39.4745 45.426 39.1525 45.342 38.7885 45.174C38.6112 45.0807 38.4385 44.964 38.2705 44.824C38.1025 44.6747 37.9625 44.5393 37.8505 44.418C37.7385 44.2967 37.6732 44.222 37.6545 44.194C37.5052 44.6233 37.1599 45.048 36.6185 45.468C36.0865 45.888 35.3165 46.0607 34.3085 45.986ZM38.5672 39.77C38.3805 39.5833 38.1238 39.2847 37.7972 38.874C37.4612 38.454 37.3165 38.048 37.3632 37.656C37.4752 37.3293 37.8298 37.0447 38.4272 36.802C39.0152 36.55 39.6265 36.354 40.2612 36.214C40.8958 36.074 41.3345 35.9993 41.5772 35.99C41.8852 35.9993 42.0532 36.1253 42.0812 36.368C42.1092 36.6107 41.9412 36.802 41.5772 36.942C40.8772 37.138 40.2192 37.334 39.6032 37.53C38.9872 37.726 38.6792 37.9033 38.6792 38.062C38.7632 38.258 38.9405 38.5053 39.2112 38.804C39.4818 39.1027 39.6358 39.35 39.6732 39.546C39.6452 39.9007 39.4818 40.078 39.1832 40.078C39.0058 40.078 38.8005 39.9753 38.5672 39.77Z" fill="white"/>
</svg>
