<svg width="40" height="40" viewBox="0 0 40 40" fill="none" xmlns="http://www.w3.org/2000/svg">
<g filter="url(#filter0_i_828_15032)">
<rect width="40" height="40" rx="12" fill="#181818"/>
<rect x="0.2" y="0.2" width="39.6" height="39.6" rx="11.8" stroke="#B5B5B5" stroke-width="0.4"/>
<path d="M28.6007 11.1796C28.3456 10.9239 27.9993 10.7803 27.6382 10.7803C27.2771 10.7803 26.9308 10.9239 26.6758 11.1796L20 17.8417L13.3242 11.1659C13.0692 10.9103 12.7229 10.7666 12.3618 10.7666C12.0007 10.7666 11.6544 10.9103 11.3993 11.1659C10.8669 11.6983 10.8669 12.5584 11.3993 13.0908L18.0751 19.7666L11.3993 26.4424C10.8669 26.9748 10.8669 27.8349 11.3993 28.3673C11.9317 28.8997 12.7918 28.8997 13.3242 28.3673L20 21.6915L26.6758 28.3673C27.2082 28.8997 28.0683 28.8997 28.6007 28.3673C29.1331 27.8349 29.1331 26.9748 28.6007 26.4424L21.9249 19.7666L28.6007 13.0908C29.1195 12.572 29.1195 11.6983 28.6007 11.1796Z" fill="white"/>
<path d="M6.56181 7.03625C4.79527 9.1587 4.51437 11.8724 3.66539 11.1657C2.81641 10.4591 3.58921 7.86936 5.35575 5.74691C7.12228 3.62446 9.47738 2.83462 10.3264 3.54123C11.1753 4.24785 8.32834 4.9138 6.56181 7.03625Z" fill="white" fill-opacity="0.88"/>
<path d="M33.3872 31.7834C34.8668 30.0057 35.102 27.7329 35.8131 28.3247C36.5241 28.9166 35.8769 31.0856 34.3973 32.8633C32.9178 34.6409 30.9453 35.3024 30.2342 34.7106C29.5232 34.1188 31.9077 33.561 33.3872 31.7834Z" fill="white" fill-opacity="0.88"/>
<ellipse cx="3.5" cy="13" rx="0.5" ry="1" fill="white" fill-opacity="0.88"/>
</g>
<defs>
<filter id="filter0_i_828_15032" x="0" y="0" width="40" height="40" filterUnits="userSpaceOnUse" color-interpolation-filters="sRGB">
<feFlood flood-opacity="0" result="BackgroundImageFix"/>
<feBlend mode="normal" in="SourceGraphic" in2="BackgroundImageFix" result="shape"/>
<feColorMatrix in="SourceAlpha" type="matrix" values="0 0 0 0 0 0 0 0 0 0 0 0 0 0 0 0 0 0 127 0" result="hardAlpha"/>
<feOffset/>
<feGaussianBlur stdDeviation="4"/>
<feComposite in2="hardAlpha" operator="arithmetic" k2="-1" k3="1"/>
<feColorMatrix type="matrix" values="0 0 0 0 1 0 0 0 0 1 0 0 0 0 1 0 0 0 0.48 0"/>
<feBlend mode="normal" in2="shape" result="effect1_innerShadow_828_15032"/>
</filter>
</defs>
</svg>
