<svg width="32" height="32" viewBox="0 0 32 32" fill="none" xmlns="http://www.w3.org/2000/svg">
<path fill-rule="evenodd" clip-rule="evenodd" d="M6.15304 11.3932L5.58464 13.6668H2.66797C2.11569 13.6668 1.66797 14.1146 1.66797 14.6668C1.66797 15.2191 2.11569 15.6668 2.66797 15.6668H29.3346C29.8869 15.6668 30.3346 15.2191 30.3346 14.6668C30.3346 14.1146 29.8869 13.6668 29.3346 13.6668H26.418L25.8496 11.3932C25.122 8.48298 24.7582 7.02786 23.6732 6.18067C22.5881 5.3335 21.0882 5.3335 18.0884 5.3335H13.9142C10.9144 5.3335 9.41447 5.3335 8.32942 6.18067C7.24438 7.02786 6.8806 8.48298 6.15304 11.3932ZM8.66797 28.0002C10.8322 28.0002 12.6523 26.527 13.1802 24.5286L14.6597 23.7888C15.5042 23.3666 16.4984 23.3666 17.3429 23.7888L18.8224 24.5286C19.3502 26.527 21.1704 28.0002 23.3346 28.0002C25.912 28.0002 28.0013 25.9108 28.0013 23.3335C28.0013 20.7562 25.912 18.6668 23.3346 18.6668C21.1212 18.6668 19.2677 20.2079 18.7884 22.2755L18.2374 22C16.8297 21.2962 15.1729 21.2962 13.7652 22L13.2142 22.2755C12.7349 20.2079 10.8814 18.6668 8.66797 18.6668C6.09064 18.6668 4.0013 20.7562 4.0013 23.3335C4.0013 25.9108 6.09064 28.0002 8.66797 28.0002Z" fill="white"/>
</svg>
