<svg width="32" height="32" viewBox="0 0 32 32" fill="none" xmlns="http://www.w3.org/2000/svg">
<path d="M15.9883 2.6665C23.3614 2.66667 29.3348 8.63977 29.335 15.9995C29.335 23.3594 23.3615 29.3333 15.9883 29.3335C8.62828 29.3335 2.66797 23.3595 2.66797 15.9995C2.66814 8.63966 8.62839 2.6665 15.9883 2.6665ZM16.001 5.3335C10.1079 5.33367 5.33514 10.1064 5.33496 15.9995C5.33496 21.8927 10.1078 26.6663 16.001 26.6665C21.8943 26.6665 26.668 21.8928 26.668 15.9995C26.6678 10.1063 21.8942 5.3335 16.001 5.3335ZM17.335 22.6665H14.668V19.9995H17.335V22.6665ZM16.001 9.3335C16.7343 9.3335 17.335 9.93317 17.335 10.6665V15.9995C17.335 16.7328 16.7343 17.3335 16.001 17.3335C15.2678 17.3333 14.668 16.7327 14.668 15.9995V10.6665C14.668 9.93328 15.2678 9.33367 16.001 9.3335Z" fill="#3355C5"/>
</svg>
