<svg width="32" height="32" viewBox="0 0 32 32" fill="none" xmlns="http://www.w3.org/2000/svg">
<path fill-rule="evenodd" clip-rule="evenodd" d="M16.0013 2.6665C23.3651 2.6665 29.3346 8.63604 29.3346 15.9998C29.3346 23.3636 23.3651 29.3332 16.0013 29.3332C8.63751 29.3332 2.66797 23.3636 2.66797 15.9998C2.66797 8.63604 8.63751 2.6665 16.0013 2.6665ZM16.0013 5.33317C10.1103 5.33317 5.33464 10.1088 5.33464 15.9998C5.33464 21.8909 10.1103 26.6665 16.0013 26.6665C21.8923 26.6665 26.668 21.8909 26.668 15.9998C26.668 10.1088 21.8923 5.33317 16.0013 5.33317ZM14.0065 9.5148L22.0065 14.8481C22.8366 15.3324 22.8854 16.4897 22.153 17.0532L14.0065 22.4849C13.1176 23.0034 12.0013 22.3622 12.0013 21.3332V10.6665C12.0013 9.63745 13.1176 8.99629 14.0065 9.5148Z" fill="white"/>
</svg>
