<svg width="32" height="32" viewBox="0 0 32 32" fill="none" xmlns="http://www.w3.org/2000/svg">
<path d="M16.0013 2.6665C13.3642 2.6665 10.7864 3.44849 8.5937 4.91358C6.40105 6.37866 4.69208 8.46104 3.68291 10.8974C2.67375 13.3337 2.4097 16.0146 2.92417 18.601C3.43864 21.1875 4.70852 23.5632 6.57322 25.4279C8.43792 27.2926 10.8137 28.5625 13.4001 29.077C15.9865 29.5914 18.6674 29.3274 21.1038 28.3182C23.5401 27.3091 25.6225 25.6001 27.0876 23.4074C28.5526 21.2148 29.3346 18.6369 29.3346 15.9998C29.3346 14.2489 28.9898 12.5151 28.3197 10.8974C27.6496 9.27972 26.6675 7.80986 25.4294 6.57175C24.1913 5.33363 22.7214 4.35151 21.1038 3.68144C19.4861 3.01138 17.7523 2.6665 16.0013 2.6665ZM16.0013 26.6665C13.8916 26.6665 11.8293 26.0409 10.0752 24.8688C8.3211 23.6968 6.95393 22.0309 6.14659 20.0818C5.33926 18.1327 5.12802 15.988 5.5396 13.9189C5.95117 11.8497 6.96707 9.94912 8.45883 8.45736C9.95059 6.9656 11.8512 5.9497 13.9203 5.53813C15.9895 5.12655 18.1342 5.33779 20.0833 6.14512C22.0323 6.95246 23.6982 8.31963 24.8703 10.0738C26.0424 11.8279 26.668 13.8902 26.668 15.9998C26.668 18.8288 25.5442 21.5419 23.5438 23.5423C21.5434 25.5427 18.8303 26.6665 16.0013 26.6665Z" fill="white"/>
<path d="M15.9987 8.00009C14.761 8.00009 13.574 8.49176 12.6989 9.36693C11.8237 10.2421 11.332 11.4291 11.332 12.6668C11.332 13.0204 11.4725 13.3595 11.7226 13.6096C11.9726 13.8596 12.3117 14.0001 12.6654 14.0001C13.019 14.0001 13.3581 13.8596 13.6082 13.6096C13.8582 13.3595 13.9987 13.0204 13.9987 12.6668C13.9987 12.2712 14.116 11.8845 14.3358 11.5556C14.5555 11.2267 14.8679 10.9704 15.2333 10.819C15.5988 10.6676 16.0009 10.628 16.3889 10.7052C16.7768 10.7824 17.1332 10.9728 17.4129 11.2525C17.6926 11.5322 17.8831 11.8886 17.9603 12.2766C18.0374 12.6645 17.9978 13.0667 17.8465 13.4321C17.6951 13.7976 17.4387 14.1099 17.1098 14.3297C16.7809 14.5495 16.3943 14.6668 15.9987 14.6668C15.6451 14.6668 15.3059 14.8072 15.0559 15.0573C14.8058 15.3073 14.6654 15.6465 14.6654 16.0001V18.6668C14.6654 19.0204 14.8058 19.3595 15.0559 19.6096C15.3059 19.8596 15.6451 20.0001 15.9987 20.0001C16.3523 20.0001 16.6915 19.8596 16.9415 19.6096C17.1916 19.3595 17.332 19.0204 17.332 18.6668V17.1201C18.4095 16.8054 19.3369 16.1119 19.9433 15.1673C20.5498 14.2228 20.7943 13.0908 20.632 11.9802C20.4696 10.8695 19.9112 9.85496 19.0598 9.12354C18.2083 8.39212 17.1212 7.99312 15.9987 8.00009Z" fill="white"/>
<path d="M16.0013 24.0002C16.7377 24.0002 17.3346 23.4032 17.3346 22.6668C17.3346 21.9304 16.7377 21.3335 16.0013 21.3335C15.2649 21.3335 14.668 21.9304 14.668 22.6668C14.668 23.4032 15.2649 24.0002 16.0013 24.0002Z" fill="white"/>
</svg>
