<svg width="32" height="32" viewBox="0 0 32 32" fill="none" xmlns="http://www.w3.org/2000/svg">
<path d="M17.332 4.99296C17.332 4.36435 17.1624 3.33377 16.2196 2.85915C15.2188 2.35529 14.2871 2.92488 13.8151 3.34893L6.59418 9.91639H3.9987C2.52594 9.91639 1.33203 11.1103 1.33203 12.5831L1.33204 19.4999C1.33204 20.9726 2.52595 22.1666 3.99871 22.1666H6.59871L13.8151 28.6523C14.2887 29.0776 15.22 29.6443 16.2195 29.1407C17.161 28.6666 17.332 27.6383 17.332 27.0083V4.99296Z" fill="white"/>
<path d="M23.1141 5.06135L22.793 4.97177C22.0838 4.77385 21.3484 5.18838 21.1504 5.89767L20.9713 6.53981C20.7733 7.24909 21.1878 7.98452 21.8972 8.18244L22.2182 8.27203C25.2729 9.12443 27.6662 12.1948 27.6662 16.0001C27.6662 19.8053 25.2729 22.8757 22.2182 23.7281L21.8972 23.8175C21.1878 24.0155 20.7733 24.751 20.9713 25.4602L21.1504 26.1023C21.3484 26.8117 22.0838 27.2262 22.793 27.0283L23.1141 26.9387C27.727 25.6515 30.9996 21.1757 30.9996 16.0001C30.9996 10.8244 27.727 6.34857 23.1141 5.06135Z" fill="white"/>
<path d="M21.8119 10.4032L21.4924 10.3077C20.787 10.0968 20.044 10.4977 19.8331 11.2032L19.6422 11.842C19.4312 12.5475 19.8322 13.2904 20.5376 13.5013L20.8571 13.5968C21.568 13.8094 22.3344 14.6826 22.3344 16C22.3344 17.3174 21.568 18.1906 20.8571 18.4032L20.5376 18.4986C19.8322 18.7096 19.4312 19.4525 19.6422 20.158L19.8331 20.7968C20.044 21.5022 20.787 21.9032 21.4924 21.6922L21.8119 21.5968C24.1679 20.8924 25.6678 18.5316 25.6678 16C25.6678 13.4685 24.1679 11.1076 21.8119 10.4032Z" fill="white"/>
</svg>
