<svg width="24" height="24" viewBox="0 0 24 24" fill="none" xmlns="http://www.w3.org/2000/svg">
<path d="M10.0796 0C9.95227 0 9.83018 0.0505713 9.74016 0.140589C9.65014 0.230606 9.59957 0.352696 9.59957 0.48V1.44C9.59957 1.5673 9.65014 1.68939 9.74016 1.77941C9.83018 1.86943 9.95227 1.92 10.0796 1.92H10.7996V3.1908C5.60693 3.7884 1.55957 8.21016 1.55957 13.56C1.55957 19.3159 6.24365 24 11.9996 24C17.7555 24 22.4396 19.3159 22.4396 13.56C22.4412 11.5899 21.8818 9.66009 20.8268 7.99632L21.8439 7.17288L22.297 7.73256C22.3367 7.78157 22.3856 7.8223 22.441 7.85241C22.4963 7.88251 22.5571 7.90142 22.6198 7.90804C22.6825 7.91466 22.7459 7.90886 22.8063 7.89098C22.8668 7.8731 22.9231 7.84349 22.9721 7.80384L23.7185 7.19952C23.8173 7.11935 23.8803 7.00323 23.8935 6.87669C23.9067 6.75014 23.8692 6.62351 23.7891 6.52464L21.3728 3.54C21.3331 3.49099 21.2842 3.45026 21.2288 3.42015C21.1734 3.39005 21.1127 3.37114 21.05 3.36452C20.9873 3.3579 20.9239 3.3637 20.8634 3.38158C20.803 3.39946 20.7467 3.42907 20.6977 3.46872L19.9513 4.07304C19.8524 4.15321 19.7895 4.26933 19.7763 4.39587C19.763 4.52242 19.8006 4.64905 19.8807 4.74792L20.3341 5.3076L19.3213 6.12696C17.7044 4.53384 15.5715 3.4644 13.1996 3.19128V1.92H13.9196C14.0469 1.92 14.169 1.86943 14.259 1.77941C14.349 1.68939 14.3996 1.5673 14.3996 1.44V0.48C14.3996 0.352696 14.349 0.230606 14.259 0.140589C14.169 0.0505713 14.0469 0 13.9196 0L10.0796 0ZM11.9996 4.8C16.8476 4.8 20.7596 8.712 20.7596 13.56C20.7596 18.408 16.8476 22.32 11.9996 22.32C7.15157 22.32 3.23957 18.408 3.23957 13.56C3.23957 8.712 7.15157 4.8 11.9996 4.8ZM12.0001 6.58632L11.9996 13.56L17.5757 17.7473C18.3535 16.7114 18.8275 15.4794 18.9444 14.1894C19.0613 12.8993 18.8166 11.6022 18.2376 10.4434C17.6587 9.28461 16.7685 8.31 15.6668 7.62878C14.5651 6.94757 13.2954 6.58644 12.0001 6.58632Z" fill="white"/>
</svg>
